<svg version="1.2" xmlns="http://www.w3.org/2000/svg" viewBox="0 0 1024 1024" width="1024" height="1024">
	<title>ricochet</title>
  <style>
    .s0 {
      fill: #000000;
    }
    @media (prefers-color-scheme: dark) {
      .s0 {
        fill: #ffffff;
      }
    }
  </style>
	<path id="Color Fill 1" class="s0" d="m0.3 464.3c0 0-0.4 0.1 11.5-16.7 12-16.8 20.9-34.5 29.6-47.6 8.6-13 20.1-37.8 29.5-46.2 9.4-8.5 8.6-14.7 28.3-20.6 19.7-5.9 34-14.6 48.8-14.1 14.8 0.4 18.6 3.6 27-3.9 8.4-7.5 23.1-15.1 25.7-27 2.6-11.8-0.4-115.5-2.6-133.6-2.1-18.1 1.5-44.5 9-73.2 7.5-28.8 13.6-50.6 27-59.2 13.5-8.5 25.3-14.4 30.9-6.4 5.5 8.1 7 20.5 6.4 34.7-0.7 14.2 1.3 31.3 2.6 41.1 1.2 9.9 5.5 31.9 10.2 34.7 4.8 2.9 18-15.8 25.7-25.7 7.8-9.9 31.6-39.2 46.3-43.7 14.7-4.4 23.3-9.6 27-1.2 3.7 8.3 9.8 45.7 6.4 78.3-3.4 32.7-4.2 63.7-10.3 84.8-6.1 21.2-10 40-18 55.3-7.9 15.3-25.7 32.8-32.1 43.7-6.4 10.9-15 17.2-15.4 32.1-0.4 14.9 2.6 28.6 5.1 41.1 2.5 12.6 6.4 40.3 11.6 50.1 5.2 9.9 5.8 22.5 18 24.5 12.2 1.9 44.6-7.9 62.9-9 18.4-1.1 51.5 2.2 63 2.5 11.5 0.3 29.8-4.4 51.4-12.8 21.6-8.4 85.5-15.6 142.9-14.3 57.4 1.3 131.4 25.6 167.7 61.3 36.2 35.7 59.2 59.1 67.3 77.1 8.2 18.1 25.8 48.2 24.5 71.4-1.2 23.2 12.1 39.7 12.7 47.3 0.5 7.7 0.2 3.7 7.7 1.3 7.4-2.3 33-17.1 35.9-24.4 3-7.2 11.6 2.6 11.6 2.6 0 0 9.5-4 16.7 3.8 7.2 7.9 13.6 31.5 10.3 50.2-3.4 18.6-10.3 28.2-10.3 28.2 0 0-10.6 12.9-3.8 12.9 6.7-0.1-15.1 6.7-15.5 11.5-0.3 4.9-12.6 22.2-34.7 24.5-22 2.2-1.2 6.4-1.2 6.4 0 0-33-2.2-43.7 3.8-10.8 6.1-34.3 32.6-60.4 38.6-26.2 6-28.3 0-28.3 0 0 0-1.5 12.1 3.9 24.4 5.3 12.3 18.2 36.4 17.9 50.1-0.2 13.7-4.7 31.8-15.4 33.4-10.6 1.6-13.5 9.5-20.5 14.2-7.1 4.6-21.7 8.1-34.7 6.4-13-1.7-55.9 6.5-70.7 9-14.8 2.5-46.2 14.5-132.4 9-17.4-3.8-25.3-2-19.2-9 6-7 12.6-8.2 9-12.9-3.7-4.6-8.3-4.7 3.8-11.5 12.2-6.8 22-19.6 30.9-28.3 8.8-8.7 25.7-18.8 50.1-19.3 24.4-0.4 53.6 0 62.9-3.8 9.4-3.9 15.8-5.1 7.8-12.9-8.1-7.7-19-18.1-27-21.8-8.1-3.8-21.2-10.3-25.7-19.3-4.5-9-11.9-26-48.9-30.8-36.9-4.8-97.6-21.3-104-10.3-6.5 10.9-2.3 27.1-5.2 33.4-2.9 6.3-24.8 50.6-28.3 61.7-3.4 11.1-7.4 16.9-6.4 26.9 1 10.1 0.6 43-14.1 55.3-14.8 12.3-44.6 19.6-100.2 19.3-22.1-0.3-33.1-0.4-27-5.2 6.1-4.7 15.5-13.4 19.2-19.2 3.8-5.9 0.8-4.9-6.4-3.9-7.1 1-42.2 2.6-48.8 1.3-6.6-1.3-11-7.1-6.4-11.6 4.5-4.4 8.8-6.7 10.3-12.8 1.4-6.1 3.6-20 16.7-23.2 13.1-3.1 27.1-4.4 34.6-21.8 7.6-17.4 7-33.7 6.5-47.5-0.6-13.9 0.6-21 0-33.5-0.7-12.4-2.6-11.7-19.3-16.7-16.7-4.9-87.3-44.9-111.8-84.8-24.5-39.9-46.4-90.3-50.1-119.5-3.7-29.1-23.6-42.7-39.8-51.4-16.9-4-34.6-3.5-55.3-7.7-20.7-4.1-46.9-19.6-55.2-29.5-8.4-10-10.4-5.7-11.6-18-1.2-12.4 1.3-11.3-3.9-19.3-5.2-8-11.9-14.1-10.2-23.1zm1003.9 824.6"/>
</svg>
