<?xml version="1.0" encoding="UTF-8" standalone="no"?>
<svg
   version="1.2"
   viewBox="0 0 1372.1141 1421.171"
   width="1372.1141"
   height="1421.1709"
   id="svg1"
   sodipodi:docname="logo-25px-margin.svg"
   inkscape:version="1.4.2 (ebf0e940, 2025-05-08)"
   inkscape:export-filename="logo-white-bg.png"
   inkscape:export-xdpi="98.650002"
   inkscape:export-ydpi="98.650002"
   xmlns:inkscape="http://www.inkscape.org/namespaces/inkscape"
   xmlns:sodipodi="http://sodipodi.sourceforge.net/DTD/sodipodi-0.dtd"
   xmlns="http://www.w3.org/2000/svg"
   xmlns:svg="http://www.w3.org/2000/svg"
   xmlns:rdf="http://www.w3.org/1999/02/22-rdf-syntax-ns#"
   xmlns:cc="http://creativecommons.org/ns#"
   xmlns:dc="http://purl.org/dc/elements/1.1/">
  <defs
     id="defs1" />
  <sodipodi:namedview
     id="namedview1"
     pagecolor="#ffffff"
     bordercolor="#000000"
     borderopacity="0.25"
     inkscape:showpageshadow="2"
     inkscape:pageopacity="0.0"
     inkscape:pagecheckerboard="0"
     inkscape:deskcolor="#d1d1d1"
     inkscape:zoom="0.28"
     inkscape:cx="783.92857"
     inkscape:cy="983.92857"
     inkscape:window-width="1472"
     inkscape:window-height="890"
     inkscape:window-x="0"
     inkscape:window-y="38"
     inkscape:window-maximized="0"
     inkscape:current-layer="svg1"
     inkscape:export-bgcolor="#ffffffff">
    <inkscape:page
       x="0"
       y="1.8111898e-06"
       width="1372.1141"
       height="1421.171"
       id="page1"
       margin="15 147.14285 15 193.57143"
       bleed="0" />
  </sodipodi:namedview>
  <title
     id="title1">ricochet</title>
  <style
     id="style1">
    .s0 {
      fill: #000000;
    }
    @media (prefers-color-scheme: dark) {
      .s0 {
        fill: #ffffff;
      }
    }
  </style>
  <path
     id="Color Fill 1"
     class="s0"
     d="m 261.65197,665.11807 c 0,0 -0.33176,0.0829 9.53791,-13.85072 9.95261,-13.93365 17.33413,-28.61374 24.54977,-39.47867 7.1327,-10.78199 16.67061,-31.35071 24.46682,-38.31754 7.79621,-7.04976 7.1327,-12.19194 23.47157,-17.08531 16.33886,-4.89336 28.19905,-12.109 40.47393,-11.69431 12.27488,0.33175 15.42654,2.98578 22.39337,-3.2346 6.96682,-6.22038 19.15877,-12.52369 21.31516,-22.39336 2.1564,-9.78673 -0.33175,-95.79385 -2.15639,-110.8057 -1.74171,-15.01184 1.24407,-36.90758 7.46445,-60.7109 6.22038,-23.88626 11.27962,-41.96683 22.39337,-49.09953 11.19668,-7.04976 20.98341,-11.94313 25.62796,-5.30806 4.56161,6.71801 5.80569,17.00237 5.30806,28.77963 -0.58057,11.77725 1.0782,25.95971 2.1564,34.08768 0.99526,8.2109 4.56161,26.45734 8.45971,28.77962 3.98105,2.40521 14.92891,-13.10427 21.31517,-21.31517 6.46919,-8.2109 26.20853,-32.51185 38.40047,-36.24408 12.19195,-3.64929 19.32465,-7.96208 22.39337,-0.99526 3.06872,6.88389 8.12796,37.90285 5.30806,64.94077 -2.81991,27.12085 -3.48341,52.83175 -8.54266,70.33175 -5.05924,17.58294 -8.29384,33.17536 -14.92891,45.86493 -6.55213,12.68958 -21.31516,27.2038 -26.62322,36.24408 -5.30806,9.04029 -12.44076,14.2654 -12.77251,26.62322 -0.33176,12.35782 2.15639,23.72038 4.22985,34.08768 2.07346,10.45024 5.30806,33.42418 9.62086,41.55214 4.31279,8.2109 4.81042,18.66114 14.92891,20.3199 10.11848,1.57583 36.99052,-6.55213 52.16825,-7.46445 15.26065,-0.91232 42.71325,1.82464 52.25125,2.07346 9.5379,0.24881 24.7156,-3.64929 42.6303,-10.61612 17.9147,-6.96682 70.9123,-12.93838 118.5189,-11.86019 47.60674,1.0782 108.98114,21.23223 139.08774,50.84124 30.0237,29.60901 49.09961,49.01659 55.81761,63.9455 6.8009,15.01185 21.3981,39.97633 20.3199,59.21804 -0.9953,19.2417 10.0355,32.92654 10.5332,39.22986 0.4147,6.38625 0.1658,3.06872 6.3862,1.0782 6.1375,-1.90759 27.3696,-14.18247 29.7748,-20.23697 2.4882,-5.97157 9.6209,2.1564 9.6209,2.1564 0,0 7.8791,-3.31754 13.8507,3.15165 5.9715,6.55214 11.2796,26.1256 8.5426,41.63511 -2.8199,15.4265 -8.5426,23.3886 -8.5426,23.3886 0,0 -8.7915,10.699 -3.1517,10.699 5.5569,-0.083 -12.5237,5.5569 -12.8554,9.538 -0.2489,4.064 -10.4503,18.4123 -28.7796,20.3198 -18.2464,1.8247 -0.9952,5.3081 -0.9952,5.3081 0,0 -27.3697,-1.8246 -36.2441,3.1517 -8.9573,5.0592 -28.44791,27.0379 -50.09481,32.0142 -21.7298,4.9763 -23.4716,0 -23.4716,0 0,0 -1.244,10.0355 3.2346,20.23691 4.3958,10.2015 15.0948,30.1896 14.846,41.5522 -0.1659,11.3625 -3.8981,26.3744 -12.7725,27.7014 -8.7915,1.327 -11.1967,7.8792 -17.0024,11.7773 -5.8886,3.8151 -17.9976,6.7179 -28.7796,5.308 -10.782,-1.41 -46.3625,5.391 -58.6374,7.4645 -12.2749,2.0734 -38.31764,12.026 -109.81054,7.4644 -14.4313,-3.1517 -20.9834,-1.6588 -15.9241,-7.4644 4.9763,-5.8057 10.4502,-6.801 7.4644,-10.6991 -3.0687,-3.8152 -6.8839,-3.8981 3.1517,-9.5379 10.1185,-5.6398 18.2464,-16.2559 25.6279,-23.4716 7.2986,-7.2156 21.3152,-15.5924 41.5521,-16.0071 20.237,-0.3317 44.45514,0 52.16844,-3.1516 7.7962,-3.2346 13.1042,-4.2299 6.4691,-10.6991 -6.718,-6.3862 -15.7582,-15.0118 -22.3933,-18.0806 -6.7181,-3.1516 -17.58314,-8.54261 -21.31534,-16.00711 -3.7322,-7.4644 -9.8697,-21.5639 -40.5568,-25.545 -30.6043,-3.981 -80.9479,-17.6659 -86.2559,-8.5426 -5.391,9.0402 -1.9076,22.4763 -4.3128,27.7014 -2.4052,5.2251 -20.5687,41.96681 -23.4716,51.17301 -2.8199,9.2061 -6.1374,14.0166 -5.308,22.3104 0.8293,8.3768 0.4976,35.6635 -11.6944,45.8649 -12.2749,10.2014 -36.9905,16.2559 -83.10425,16.0071 -18.32938,-0.2488 -27.4526,-0.3317 -22.39336,-4.3128 5.05924,-3.8981 12.85545,-11.1137 15.92417,-15.9241 3.15166,-4.8934 0.66351,-4.064 -5.30806,-3.2346 -5.88862,0.8293 -35,2.1564 -40.47393,1.0782 -5.47394,-1.0782 -9.12323,-5.8887 -5.30806,-9.6209 3.73223,-3.6493 7.29858,-5.5569 8.54265,-10.6161 1.16114,-5.0592 2.98579,-16.5877 13.85071,-19.2417 10.86493,-2.5711 22.47631,-3.6493 28.69669,-18.0806 6.30332,-14.4313 5.80569,-27.9502 5.39099,-39.39571 -0.49763,-11.5284 0.49763,-17.4171 0,-27.7844 -0.58056,-10.2843 -2.15639,-9.7038 -16.00711,-13.8507 -13.85071,-4.064 -72.40521,-37.2393 -92.72512,-70.3317 -20.3199,-33.09243 -38.48341,-74.89338 -41.55213,-99.11142 -3.06872,-24.13507 -19.57346,-35.41469 -33.00948,-42.63033 -14.01659,-3.31754 -28.69669,-2.90285 -45.86493,-6.38626 -17.16825,-3.40047 -38.89811,-16.25592 -45.782,-24.46683 -6.96682,-8.29383 -8.62559,-4.72748 -9.62085,-14.92891 -0.99526,-10.28436 1.0782,-9.37203 -3.2346,-16.00711 -4.31279,-6.63507 -9.86967,-11.69431 -8.45971,-19.15876 z m 832.61853,683.91003"
     style="stroke-width:0.829384" />
  <metadata
     id="metadata1">
    <rdf:RDF>
      <cc:Work
         rdf:about="">
        <dc:title>ricochet</dc:title>
      </cc:Work>
    </rdf:RDF>
  </metadata>
</svg>
